<svg xmlns="http://www.w3.org/2000/svg" xmlns:ev="http://www.w3.org/2001/xml-events" xmlns:xlink="http://www.w3.org/1999/xlink" width="498" height="834" class="st5" color-interpolation-filters="sRGB" viewBox="0 0 373.5 625.5" xml:space="preserve" style="background-color:#fff"><style type="text/css">.st1{fill:url(#grad0-4);stroke:#fff;stroke-linecap:round;stroke-linejoin:round;stroke-width:1.5}.st2{font-family:Calibri;font-size:1.16666em}.st2,.st3{fill:#fff}.st4{stroke:#146093;stroke-linecap:round;stroke-linejoin:round;stroke-width:1}.st5{fill:none;fill-rule:evenodd;font-size:12px;overflow:visible;stroke-linecap:square;stroke-miterlimit:3}</style><defs id="Patterns_And_Gradients"><linearGradient id="grad0-4" x1="0" x2="1" y1="0" y2="0" gradientTransform="rotate(90 0.5 0.5)"><stop offset=".1" stop-color="#2095e2" stop-opacity="1"/><stop offset="1" stop-color="#146093" stop-opacity="1"/></linearGradient></defs><g><title>Page-1</title><g id="shape1-1" transform="translate(102.6,-546.3)"><title>Rectangle.1</title><desc>input_or_output_iterator</desc><rect width="172.8" height="72" x="0" y="553.5" class="st1"/><text x="13.71" y="593.7" class="st2">input_or_output_iterator</text></g><g id="shape3-6" transform="translate(7.6248,-438.3)"><title>Rectangle.3</title><desc>input_iterator</desc><rect width="172.8" height="72" x="0" y="553.5" class="st1"/><text x="46.23" y="593.7" class="st2">input_iterator</text></g><g id="shape4-10" transform="translate(194.4,-438.3)"><title>Rectangle.4</title><desc>output_iterator</desc><rect width="172.8" height="72" x="0" y="553.5" class="st1"/><text x="41.8" y="593.7" class="st2">output_iterator</text></g><g id="shape5-14" transform="translate(102.6,-330.3)"><title>Rectangle.5</title><desc>forward_iterator</desc><rect width="172.8" height="72" x="0" y="553.5" class="st1"/><text x="38.47" y="593.7" class="st2">forward_iterator</text></g><g id="shape6-18" transform="translate(102.6,-6.75)"><title>Rectangle.6</title><desc>contiguous_iterator</desc><rect width="172.8" height="72" x="0" y="553.5" class="st1"/><text x="29.85" y="593.7" class="st2">contiguous_iterator</text></g><g id="shape7-22" transform="translate(102.6,-114.6)"><title>Rectangle.7</title><desc>random_access_iterator</desc><rect width="172.8" height="72" x="0" y="553.5" class="st1"/><text x="17.06" y="593.7" class="st2">random_access_iterator</text></g><g id="shape8-26" transform="translate(102.6,-222.45)"><title>Rectangle.8</title><desc>bidirectional_iterator</desc><rect width="172.8" height="72" x="0" y="553.5" class="st1"/><text x="25.48" y="593.7" class="st2">bidirectional_iterator</text></g><g id="shape17-30" transform="translate(-436.5,546.75) rotate(-90)"><title>Line Arrow.17</title><path d="M29.46 622.3 L29.46 628.7 L35.85 625.5 L29.46 622.3 Z" class="st3"/><path d="M29.46 622.3 L29.46 628.7 L35.85 625.5 L29.46 622.3" class="st4"/><path d="M0 625.5 L29.46 625.5" class="st4"/></g><g id="shape18-34" transform="translate(-436.5,438.9) rotate(-90)"><title>Line Arrow.18</title><path d="M29.46 622.3 L29.46 628.7 L35.85 625.5 L29.46 622.3 Z" class="st3"/><path d="M29.46 622.3 L29.46 628.7 L35.85 625.5 L29.46 622.3" class="st4"/><path d="M0 625.5 L29.46 625.5" class="st4"/></g><g id="shape21-38" transform="translate(-436.5,331.05) rotate(-90)"><title>Line Arrow.21</title><path d="M29.46 622.3 L29.46 628.7 L35.85 625.5 L29.46 622.3 Z" class="st3"/><path d="M29.46 622.3 L29.46 628.7 L35.85 625.5 L29.46 622.3" class="st4"/><path d="M0 625.5 L29.46 625.5" class="st4"/></g><g id="shape22-42" transform="translate(-39.3622,-359.124) rotate(-21.413)"><title>Line Arrow.22</title><path d="M92.21 622.3 L92.21 628.7 L98.61 625.5 L92.21 622.3 Z" class="st3"/><path d="M92.21 622.3 L92.21 628.7 L98.61 625.5 L92.21 622.3" class="st4"/><path d="M0 625.5 L92.21 625.5" class="st4"/></g><g id="shape23-46" transform="translate(-32.7012,808.092) rotate(-159.241)"><title>Line Arrow.23</title><path d="M95.18 622.3 L95.18 628.7 L101.57 625.5 L95.18 622.3 Z" class="st3"/><path d="M95.18 622.3 L95.18 628.7 L101.57 625.5 L95.18 622.3" class="st4"/><path d="M0 625.5 L95.18 625.5" class="st4"/></g><g id="shape24-50" transform="translate(52.4378,697.524) rotate(-158.587)"><title>Line Arrow.24</title><path d="M92.21 622.3 L92.21 628.7 L98.61 625.5 L92.21 622.3 Z" class="st3"/><path d="M92.21 622.3 L92.21 628.7 L98.61 625.5 L92.21 622.3" class="st4"/><path d="M0 625.5 L92.21 625.5" class="st4"/></g><g id="shape25-54" transform="translate(-127.676,-469.692) rotate(-20.759)"><title>Line Arrow.25</title><path d="M95.18 622.3 L95.18 628.7 L101.57 625.5 L95.18 622.3 Z" class="st3"/><path d="M95.18 622.3 L95.18 628.7 L101.57 625.5 L95.18 622.3" class="st4"/><path d="M0 625.5 L95.18 625.5" class="st4"/></g></g></svg>