<svg xmlns="http://www.w3.org/2000/svg" xmlns:ev="http://www.w3.org/2001/xml-events" xmlns:xlink="http://www.w3.org/1999/xlink" width="504" height="696" class="st5" color-interpolation-filters="sRGB" viewBox="0 0 378 522" xml:space="preserve" style="background-color:#fff"><style type="text/css">.st1{fill:url(#grad0-4);stroke:#fff;stroke-linecap:round;stroke-linejoin:round;stroke-width:1.5}.st2{font-family:Calibri;font-size:1.16666em}.st2,.st3{fill:#fff}.st4{stroke:#146093;stroke-linecap:round;stroke-linejoin:round;stroke-width:1}.st5{fill:none;fill-rule:evenodd;font-size:12px;overflow:visible;stroke-linecap:square;stroke-miterlimit:3}</style><defs id="Patterns_And_Gradients"><linearGradient id="grad0-4" x1="0" x2="1" y1="0" y2="0" gradientTransform="rotate(90 0.5 0.5)"><stop offset=".1" stop-color="#2095e2" stop-opacity="1"/><stop offset="1" stop-color="#146093" stop-opacity="1"/></linearGradient></defs><g><title>Page-1</title><g id="shape3-1" transform="translate(9,-445.5)"><title>Rectangle.3</title><desc>input_range</desc><rect width="172.8" height="72" x="0" y="450" class="st1"/><text x="51.68" y="490.2" class="st2">input_range</text></g><g id="shape4-6" transform="translate(195.775,-445.5)"><title>Rectangle.4</title><desc>output_range</desc><rect width="172.8" height="72" x="0" y="450" class="st1"/><text x="47.25" y="490.2" class="st2">output_range</text></g><g id="shape5-10" transform="translate(103.5,-333)"><title>Rectangle.5</title><desc>forward_range</desc><rect width="172.8" height="72" x="0" y="450" class="st1"/><text x="43.92" y="490.2" class="st2">forward_range</text></g><g id="shape6-14" transform="translate(103.5,-9)"><title>Rectangle.6</title><desc>contiguous_range</desc><rect width="172.8" height="72" x="0" y="450" class="st1"/><text x="35.3" y="490.2" class="st2">contiguous_range</text></g><g id="shape7-18" transform="translate(103.5,-117)"><title>Rectangle.7</title><desc>random_access_range</desc><rect width="172.8" height="72" x="0" y="450" class="st1"/><text x="22.51" y="490.2" class="st2">random_access_range</text></g><g id="shape8-22" transform="translate(103.5,-225)"><title>Rectangle.8</title><desc>bidirectional_range</desc><rect width="172.8" height="72" x="0" y="450" class="st1"/><text x="30.93" y="490.2" class="st2">bidirectional_range</text></g><g id="shape17-26" transform="translate(-332.1,441) rotate(-90)"><title>Line Arrow.17</title><path d="M29.61 518.8 L29.61 525.2 L36 522 L29.61 518.8 Z" class="st3"/><path d="M29.61 518.8 L29.61 525.2 L36 522 L29.61 518.8" class="st4"/><path d="M0 522 L29.61 522" class="st4"/></g><g id="shape18-30" transform="translate(-332.1,333) rotate(-90)"><title>Line Arrow.18</title><path d="M29.61 518.8 L29.61 525.2 L36 522 L29.61 518.8 Z" class="st3"/><path d="M29.61 518.8 L29.61 525.2 L36 522 L29.61 518.8" class="st4"/><path d="M0 522 L29.61 522" class="st4"/></g><g id="shape21-34" transform="translate(-332.1,225) rotate(-90)"><title>Line Arrow.21</title><path d="M29.61 518.8 L29.61 525.2 L36 522 L29.61 518.8 Z" class="st3"/><path d="M29.61 518.8 L29.61 525.2 L36 522 L29.61 518.8" class="st4"/><path d="M0 522 L29.61 522" class="st4"/></g><g id="shape22-38" transform="translate(-19.8908,-360.987) rotate(-23.6969)"><title>Line Arrow.22</title><path d="M94.38 518.8 L94.38 525.2 L100.77 522 L94.38 518.8 Z" class="st3"/><path d="M94.38 518.8 L94.38 525.2 L100.77 522 L94.38 518.8" class="st4"/><path d="M0 522 L94.38 522" class="st4"/></g><g id="shape23-42" transform="translate(-15.7259,596.794) rotate(-156.801)"><title>Line Arrow.23</title><path d="M96.42 518.8 L96.42 525.2 L102.81 522 L96.42 518.8 Z" class="st3"/><path d="M96.42 518.8 L96.42 525.2 L102.81 522 L96.42 518.8" class="st4"/><path d="M0 522 L96.42 522" class="st4"/></g></g></svg>